<svg width="24" height="24" viewBox="0 0 24 24" fill="none" xmlns="http://www.w3.org/2000/svg">
<path d="M24 0V24H0V0H24Z" fill="white" fill-opacity="0.01"/>
<path fill-rule="evenodd" clip-rule="evenodd" d="M7.9938 3.29641C8.22957 2.92594 8.77039 2.92594 9.00617 3.29641L9.59513 4.22185C9.64227 4.29593 9.7051 4.35875 9.77917 4.40589L10.7046 4.99486C11.0751 5.23063 11.0751 5.77145 10.7046 6.00723L9.77917 6.59619C9.7051 6.64334 9.64227 6.70616 9.59513 6.78024L9.00617 7.70568C8.77039 8.07615 8.22957 8.07615 7.9938 7.70568L7.40483 6.78024C7.35769 6.70616 7.29486 6.64334 7.22079 6.59619L6.29535 6.00723C5.92487 5.77145 5.92487 5.23063 6.29535 4.99486L7.22079 4.40589C7.29486 4.35875 7.35769 4.29593 7.40483 4.22185L7.9938 3.29641ZM5.0613 8.30313C5.25096 7.95636 5.749 7.95636 5.93866 8.30313L6.13682 8.66545C6.1827 8.74935 6.25168 8.81832 6.33557 8.86421L6.69789 9.06237C7.04466 9.25202 7.04466 9.75007 6.69789 9.93972L6.33557 10.1379C6.25168 10.1838 6.1827 10.2527 6.13682 10.3366L5.93866 10.699C5.749 11.0457 5.25096 11.0457 5.0613 10.699L4.86315 10.3366C4.81726 10.2527 4.74828 10.1838 4.66439 10.1379L4.30207 9.93972C3.9553 9.75007 3.9553 9.25202 4.30207 9.06237L4.66439 8.86421C4.74828 8.81832 4.81726 8.74935 4.86315 8.66545L5.0613 8.30313ZM12.7525 5.28867C12.5948 4.75812 12.7338 4.21367 13.0578 3.83376C13.3949 3.43846 13.9682 3.19289 14.5875 3.37851C18.2959 4.48999 21 7.92827 21 12.0007C21 16.9713 16.9706 21.0007 12 21.0007C7.92754 21.0007 4.48926 18.2966 3.37778 14.5883C3.19216 13.969 3.43773 13.3956 3.83303 13.0585C4.21294 12.7345 4.75739 12.5956 5.28794 12.7532C5.82926 12.914 6.40362 13.0007 6.99999 13.0007C10.3137 13.0007 13 10.3144 13 7.00073C13 6.40436 12.9133 5.83 12.7525 5.28867Z" fill="#F7F9FC"/>
</svg>
