<svg width="24" height="24" viewBox="0 0 24 24" fill="none" xmlns="http://www.w3.org/2000/svg">
<path d="M24 0V24H0V0H24Z" fill="white" fill-opacity="0.01"/>
<path d="M7 14.0003C10.866 14.0003 14 10.8663 14 7.00031C14 6.30648 13.8991 5.63624 13.7111 5.00345C13.5967 4.61868 13.9159 4.22075 14.3004 4.33599C17.5974 5.32417 20 8.38166 20 12.0003C20 16.4186 16.4183 20.0003 12 20.0003C8.38135 20.0003 5.32387 17.5977 4.33568 14.3007C4.22044 13.9162 4.61838 13.597 5.00315 13.7114C5.63593 13.8994 6.30618 14.0003 7 14.0003Z" stroke="#F7F9FC" stroke-width="1.5" stroke-linejoin="round"/>
<path fill-rule="evenodd" clip-rule="evenodd" d="M9.00617 3.29543C8.77039 2.92496 8.22957 2.92496 7.9938 3.29543L7.40483 4.22088C7.35769 4.29495 7.29486 4.35777 7.22079 4.40492L6.29535 4.99388C5.92487 5.22966 5.92487 5.77048 6.29535 6.00625L7.22079 6.59522C7.29486 6.64236 7.35769 6.70518 7.40483 6.77926L7.9938 7.7047C8.22957 8.07517 8.77039 8.07517 9.00617 7.7047L9.59513 6.77926C9.64227 6.70518 9.7051 6.64236 9.77917 6.59522L10.7046 6.00625C11.0751 5.77048 11.0751 5.22966 10.7046 4.99388L9.77917 4.40492C9.7051 4.35777 9.64227 4.29495 9.59513 4.22088L9.00617 3.29543ZM5.93866 8.30216C5.749 7.95539 5.25096 7.95539 5.0613 8.30216L4.86315 8.66447C4.81726 8.74837 4.74828 8.81735 4.66439 8.86323L4.30207 9.06139C3.9553 9.25105 3.9553 9.74909 4.30207 9.93875L4.66439 10.1369C4.74828 10.1828 4.81726 10.2518 4.86315 10.3357L5.0613 10.698C5.25096 11.0447 5.749 11.0447 5.93866 10.698L6.13682 10.3357C6.1827 10.2518 6.25168 10.1828 6.33557 10.1369L6.69789 9.93875C7.04466 9.74909 7.04466 9.25105 6.69789 9.06139L6.33557 8.86323C6.25168 8.81735 6.1827 8.74837 6.13682 8.66447L5.93866 8.30216Z" fill="#F7F9FC"/>
</svg>
