<svg width="24" height="24" viewBox="0 0 24 24" fill="none" xmlns="http://www.w3.org/2000/svg">
<path d="M24 0V24H0V0H24Z" fill="white" fill-opacity="0.01"/>
<path fill-rule="evenodd" clip-rule="evenodd" d="M9.91969 3.02042C10.5766 2.6246 11.2363 2.36084 12 2.36084C12.7638 2.36084 13.4234 2.6246 14.0804 3.02042C14.7027 3.39543 15.4058 3.94233 16.2504 4.59923L21.1937 8.44405C21.2049 8.45273 21.2162 8.46156 21.2278 8.47051C21.3872 8.59432 21.5785 8.74289 21.7164 8.8831L21.718 8.88464C21.81 8.97817 22.2848 9.46055 22.0522 10.1386C21.8195 10.8166 21.1486 10.9059 21.0185 10.9232L21.0164 10.9235C20.8251 10.949 20.5884 10.9493 20.3889 10.9492V13.1771C20.3889 14.7154 20.3889 15.9557 20.2757 16.9439C20.1587 17.9659 19.9096 18.8432 19.3222 19.5916C19.075 19.9066 18.7908 20.1908 18.4758 20.438C17.7274 21.0254 16.8501 21.2745 15.8281 21.3915C14.8399 21.5047 13.5996 21.5047 12.0613 21.5047H11.9387C10.4004 21.5047 9.16012 21.5047 8.17198 21.3915C7.14998 21.2745 6.27262 21.0254 5.52424 20.438C5.20922 20.1908 4.92504 19.9066 4.6778 19.5916C4.09048 18.8432 3.84138 17.9659 3.7243 16.9439C3.6111 15.9557 3.61111 14.7154 3.61113 13.1771L3.61114 10.9492C3.41166 10.9493 3.17494 10.949 2.98368 10.9235L2.98154 10.9232C2.85145 10.9059 2.18053 10.8166 1.94788 10.1386C1.71524 9.46055 2.19003 8.97817 2.28209 8.88464L2.28361 8.8831C2.42156 8.74289 2.61285 8.59432 2.77227 8.47051C2.7838 8.46156 2.79516 8.45273 2.80632 8.44405L7.74967 4.59922C8.5942 3.94233 9.29732 3.39542 9.91969 3.02042Z" fill="#F7F9FC"/>
</svg>
