<svg width="24" height="24" viewBox="0 0 24 24" fill="none" xmlns="http://www.w3.org/2000/svg">
<path d="M24 0V24H0V0H24Z" fill="white" fill-opacity="0.01"/>
<path fill-rule="evenodd" clip-rule="evenodd" d="M12 1.42773C6.75329 1.42773 2.5 5.68103 2.5 10.9277C2.5 15.0062 5.29235 18.1661 7.63485 20.1174C7.6537 20.1331 7.6725 20.1487 7.69125 20.1644C8.34259 20.707 8.93785 21.203 9.58506 21.5436C10.3007 21.9203 11.0463 22.0953 12 22.0953C12.9537 22.0953 13.6993 21.9203 14.4149 21.5436C15.0621 21.203 15.6573 20.7071 16.3085 20.1646C16.3273 20.1489 16.3462 20.1331 16.3652 20.1174C18.7077 18.1661 21.5 15.0062 21.5 10.9277C21.5 5.68103 17.2467 1.42773 12 1.42773ZM12 14C13.6569 14 15 12.6569 15 11C15 9.34315 13.6569 8 12 8C10.3431 8 9 9.34315 9 11C9 12.6569 10.3431 14 12 14Z" fill="#F7F9FC"/>
</svg>
