<svg width="24" height="24" viewBox="0 0 24 24" fill="none" xmlns="http://www.w3.org/2000/svg">
<path d="M24 0V24H0V0H24Z" fill="white" fill-opacity="0.01"/>
<path d="M20.5 10.9287C20.5 14.5436 18.0098 17.4469 15.7251 19.35C14.3275 20.5142 13.6287 21.0963 12 21.0963C10.3713 21.0963 9.67251 20.5142 8.27486 19.35C5.99017 17.4469 3.5 14.5436 3.5 10.9287C3.5 6.23429 7.30558 2.42871 12 2.42871C16.6944 2.42871 20.5 6.23429 20.5 10.9287Z" stroke="#F7F9FC" stroke-width="1.5"/>
<path d="M15 11.001C15 12.6578 13.6569 14.001 12 14.001C10.3431 14.001 9 12.6578 9 11.001C9 9.34412 10.3431 8.00098 12 8.00098C13.6569 8.00098 15 9.34412 15 11.001Z" stroke="#F7F9FC" stroke-width="1.5"/>
</svg>
