<svg width="24" height="24" viewBox="0 0 24 24" fill="none" xmlns="http://www.w3.org/2000/svg">
<path d="M24 0V24H0V0H24Z" fill="white" fill-opacity="0.01"/>
<path d="M4.86215 7.1176C4.25312 7.194 3.63093 7.43223 3.37177 7.98864C3.25831 8.23223 3.15487 8.48142 3.06196 8.73568C2.85123 9.31242 3.12286 9.92112 3.49968 10.4059C3.86382 10.8744 4.07243 11.4192 4.07243 12.0006C4.07243 12.582 3.86382 13.1268 3.49968 13.5953C3.12286 14.0801 2.85123 14.6888 3.06196 15.2656C3.15488 15.5199 3.25834 15.7691 3.37182 16.0127C3.63098 16.5691 4.25316 16.8073 4.86217 16.8837C5.45076 16.9576 5.98337 17.1953 6.39437 17.6063C6.80537 18.0173 7.0431 18.5499 7.11695 19.1385C7.19336 19.7475 7.43159 20.3697 7.98798 20.6289C8.23159 20.7423 8.48081 20.8458 8.7351 20.9387C9.31184 21.1494 9.92054 20.8778 10.4053 20.501C10.8738 20.1368 11.4187 19.9282 12 19.9282C12.5814 19.9282 13.1263 20.1368 13.5947 20.501C14.0795 20.8778 14.6882 21.1494 15.265 20.9387C15.5193 20.8458 15.7685 20.7423 16.0121 20.6289C16.5685 20.3697 16.8067 19.7475 16.8832 19.1385C16.957 18.5499 17.1947 18.0173 17.6057 17.6063C18.0167 17.1953 18.5493 16.9576 19.1379 16.8838C19.7469 16.8073 20.3691 16.5691 20.6283 16.0127C20.7417 15.7691 20.8452 15.5199 20.9381 15.2656C21.1489 14.6888 20.8772 14.0801 20.5004 13.5953C20.1363 13.1268 19.9277 12.582 19.9277 12.0006C19.9277 11.4192 20.1363 10.8744 20.5004 10.4059C20.8772 9.92112 21.1489 9.31241 20.9381 8.73567C20.8452 8.48141 20.7418 8.23222 20.6283 7.98863C20.3692 7.43223 19.747 7.19399 19.1379 7.11759C18.5493 7.04375 18.0167 6.80601 17.6057 6.39501C17.1947 5.984 16.957 5.45137 16.8831 4.86276C16.8067 4.25373 16.5685 3.63154 16.0121 3.37238C15.7685 3.25891 15.5193 3.15546 15.265 3.06254C14.6883 2.85181 14.0795 3.12344 13.5947 3.50026C13.1263 3.8644 12.5814 4.073 12 4.073C11.4187 4.073 10.8738 3.8644 10.4053 3.50026C9.92054 3.12344 9.31184 2.85181 8.7351 3.06254C8.48081 3.15546 8.2316 3.25891 7.988 3.37238C7.43159 3.63154 7.19336 4.25373 7.11696 4.86276C7.04313 5.45137 6.80539 5.984 6.39438 6.39501C5.98337 6.80602 5.45075 7.04376 4.86215 7.1176Z" stroke="#F7F9FC" stroke-width="1.5" stroke-linejoin="round"/>
<path d="M14.9999 12C14.9999 13.6569 13.6568 15 11.9999 15C10.3431 15 8.99991 13.6569 8.99991 12C8.99991 10.3431 10.3431 9 11.9999 9C13.6568 9 14.9999 10.3431 14.9999 12Z" stroke="#F7F9FC" stroke-width="1.5" stroke-linejoin="round"/>
</svg>
