<svg width="24" height="24" viewBox="0 0 24 24" fill="none" xmlns="http://www.w3.org/2000/svg">
<path d="M24 0V24H0V0H24Z" fill="white" fill-opacity="0.01"/>
<path fill-rule="evenodd" clip-rule="evenodd" d="M15.6083 2.12233C14.5268 1.72718 13.5389 2.27628 12.9812 2.70977C12.6655 2.95511 12.3322 3.07206 12.0002 3.07206C11.6681 3.07206 11.3348 2.95511 11.0192 2.70977C10.4615 2.27628 9.47353 1.72718 8.39203 2.12234C8.11081 2.22509 7.83524 2.33949 7.5659 2.46494C6.52293 2.95074 6.21277 4.03661 6.12486 4.73735C6.07512 5.13392 5.92213 5.45223 5.68739 5.68696C5.45267 5.92169 5.13436 6.07468 4.7378 6.12443C4.03705 6.21234 2.95118 6.52251 2.4654 7.56548C2.33996 7.8348 2.22557 8.11035 2.12282 8.39155C1.72766 9.47304 2.27677 10.461 2.71026 11.0187C2.9556 11.3343 3.07255 11.6677 3.07255 11.9997C3.07255 12.3317 2.9556 12.665 2.71026 12.9807C2.27677 13.5384 1.72766 14.5263 2.12282 15.6078C2.22558 15.8891 2.33999 16.1646 2.46546 16.434C2.95125 17.4769 4.03709 17.7871 4.73781 17.875C5.13436 17.9248 5.45266 18.0778 5.68739 18.3125C5.92211 18.5472 6.0751 18.8655 6.12485 19.2621C6.21277 19.9628 6.52293 21.0486 7.56588 21.5344C7.83523 21.6599 8.11081 21.7743 8.39204 21.877C9.47353 22.2722 10.4615 21.7231 11.0192 21.2896C11.3348 21.0442 11.6681 20.9273 12.0002 20.9273C12.3322 20.9273 12.6655 21.0442 12.9812 21.2896C13.5389 21.7231 14.5268 22.2722 15.6083 21.877C15.8895 21.7743 16.1651 21.6599 16.4345 21.5344C17.4774 21.0486 17.7876 19.9628 17.8755 19.2621C17.9252 18.8655 18.0782 18.5472 18.313 18.3125C18.5477 18.0778 18.866 17.9248 19.2625 17.875C19.9633 17.7871 21.0491 17.477 21.5349 16.434C21.6603 16.1647 21.7748 15.8891 21.8775 15.6078C22.2727 14.5263 21.7236 13.5384 21.2901 12.9807C21.0447 12.665 20.9278 12.3317 20.9278 11.9997C20.9278 11.6677 21.0447 11.3343 21.2901 11.0187C21.7236 10.461 22.2727 9.47303 21.8775 8.39154C21.7748 8.11034 21.6604 7.83479 21.5349 7.56547C21.0492 6.5225 19.9633 6.21233 19.2625 6.12442C18.866 6.07467 18.5477 5.92169 18.313 5.68696C18.0782 5.45223 17.9252 5.13391 17.8755 4.73735C17.7876 4.0366 17.4774 2.95074 16.4345 2.46495C16.1651 2.33949 15.8895 2.22509 15.6083 2.12233ZM8.99995 12C8.99995 10.3431 10.3431 9 11.9999 9C13.6568 9 14.9999 10.3431 14.9999 12C14.9999 13.6569 13.6568 15 11.9999 15C10.3431 15 8.99995 13.6569 8.99995 12ZM11.9999 7C9.23852 7 6.99995 9.23858 6.99995 12C6.99995 14.7614 9.23852 17 11.9999 17C14.7614 17 16.9999 14.7614 16.9999 12C16.9999 9.23858 14.7614 7 11.9999 7Z" fill="#F7F9FC"/>
</svg>
