<svg width="31" height="28" viewBox="0 0 31 28" fill="none" xmlns="http://www.w3.org/2000/svg">
<g clip-path="url(#clip0_13_227)">
<path fill-rule="evenodd" clip-rule="evenodd" d="M14.1911 3.50763C13.3548 2.18988 11.5246 1.69932 10.0818 2.49892L7.93511 3.65057C6.35179 4.49912 5.81494 6.4018 6.71943 7.86942L6.72008 7.87046C7.18667 8.62514 7.11343 9.10723 6.96779 9.34417C6.82207 9.58124 6.41405 9.88168 5.48668 9.88168C3.66136 9.88168 2.1889 11.2798 2.1889 12.9733V15.0267C2.1889 16.7203 3.66136 18.1183 5.48668 18.1183C6.41405 18.1183 6.82207 18.4187 6.96779 18.6558C7.11343 18.8928 7.18667 19.3748 6.72008 20.1295L6.71943 20.1306C5.81494 21.5983 6.35229 23.5012 7.93562 24.3497L10.0819 25.5011C11.5247 26.3006 13.3548 25.8102 14.1911 24.4924L14.3336 24.2618C14.8002 23.507 15.2842 23.3246 15.5775 23.3246C15.8696 23.3246 16.3498 23.5055 16.8103 24.2585L16.8122 24.2618L16.9491 24.4834L16.9547 24.4924C17.791 25.8102 19.6211 26.3006 21.0639 25.5011L23.2107 24.3495C24.7951 23.5003 25.3286 21.6108 24.4286 20.1342L24.4258 20.1295C23.9591 19.3748 24.0324 18.8928 24.178 18.6558C24.3237 18.4187 24.7318 18.1183 25.6591 18.1183C27.4845 18.1183 28.9569 16.7203 28.9569 15.0267V12.9733C28.9569 11.2621 27.4656 9.88168 25.6591 9.88168C24.7318 9.88168 24.3237 9.58124 24.178 9.34417C24.0324 9.10723 23.9591 8.62514 24.4258 7.87046L24.4264 7.86942C25.331 6.40165 24.7939 4.49871 23.2102 3.6503L21.064 2.49892C19.6212 1.69932 17.791 2.18983 16.9547 3.50759L16.8122 3.73827C16.3456 4.49301 15.8616 4.67543 15.5682 4.67543C15.2762 4.67543 14.796 4.49455 14.3356 3.74151L14.3336 3.73827L14.1967 3.51658L14.1911 3.50763ZM19.3 14C19.3 15.933 17.6286 17.5 15.5667 17.5C13.5048 17.5 11.8333 15.933 11.8333 14C11.8333 12.0669 13.5048 10.5 15.5667 10.5C17.6286 10.5 19.3 12.0669 19.3 14Z" fill="#676B73"/>
</g>
<defs>
<clipPath id="clip0_13_227">
<rect width="29.8667" height="28" fill="white" transform="translate(0.633362)"/>
</clipPath>
</defs>
</svg>
